<svg xmlns="http://www.w3.org/2000/svg" viewBox="0 0 495.46 492.35"><defs><style>.a{fill:none;}.b{fill:#af001f;}.c{fill:#b4281c;}.d{fill:#003ccc;}.e{fill:#006ad4;}.f{fill:#5898c4;}.g{fill:#aa002b;}.h{fill:#ad0020;}.i{fill:#0066c9;}.j{fill:#6dc9cd;}.k{fill:#c32500;}.l{fill:#c10600;}.m{fill:#0074ce;}.n{fill:#007fd1;}.o{fill:#abc38b;}.p{fill:#c60800;}.q{fill:#c8c46c;}.r{fill:#0097de;}.s{fill:#008dde;}.t{fill:#169ee2;}.u{fill:#ce620a;}.v{fill:#ac8c98;}.w{fill:#dae262;}.x{fill:#008ad9;}.y{fill:#74e0e0;}.z{fill:#afdf7b;}.aa{fill:#df2200;}.ab{fill:#009be2;}.ac{fill:#14b4ec;}.ad{fill:#dc2b00;}.ae{fill:#df5e00;}.af{fill:#67d7ef;}.ag{fill:#0074d4;}.ah{fill:#e88200;}.ai{fill:#dcf07c;}.aj{fill:#31bded;}.ak{fill:#0069d5;}.al{fill:#0181dd;}.am{fill:#8bebdb;}.an{fill:#f38900;}.ao{fill:#b7f3bb;}.ap{fill:#b16559;}.aq{fill:#f43800;}.ar{fill:#f77700;}.as{fill:#f2da4a;}.at{fill:#d8f890;}.au{fill:#c5f5c1;}.av{fill:#6cb0c4;}.aw{fill:#cbf387;}.ax{fill:#8bcfa3;}.ay{fill:#96eaa2;}.az{fill:#9ae292;}.ba{fill:#f0d03c;}.bb{fill:#f6e63a;}.bc{fill:#c7df6f;}.bd{fill:#b5b995;}.be{fill:#fb9b00;}.bf{fill:#f56500;}</style></defs><title>skunk-publicdomainvectors.org</title><path class="a" d="M445.87,328.65c1.47,1.47-3.33,10.81-5.55,10.8-.88,0-1.6-2.19-1.59-4.87C438.73,329.94,443.34,326.11,445.87,328.65Z" transform="translate(-36.71 -23.81)"/><path class="a" d="M480,329.58c4.17-1.89,5.56-1.75,8.15.85s2.72,3.63.56,6.21c-3.31,4-12.26,3-13.09-1.44C475.23,333.1,476.86,331,480,329.58Z" transform="translate(-36.71 -23.81)"/><path class="b" d="M37,127.16c-1.1-6.68.66-21.27,3.74-33.78l17.9,3Z" transform="translate(-36.71 -23.81)"/><path class="c" d="M79.24,138.85a89.05,89.05,0,0,0-11.75,16.47c-3.53,6.81-6.93,12.4-7.54,12.4-2.74,0-9.23-9.71-14.12-21.17-2.95-6.88-6.5-14.35-7.9-16.61a8.16,8.16,0,0,1-.89-2.78L58.68,96.4Z" transform="translate(-36.71 -23.81)"/><path class="d" d="M82.29,351c-.91-2.14-1.67-4.17-2.33-6.21l10,6.91Z" transform="translate(-36.71 -23.81)"/><path class="e" d="M91.77,369.87c-1.84-3.3-3.72-6.83-5.39-10.16s-3-6.08-4.09-8.73l7.67.7Z" transform="translate(-36.71 -23.81)"/><path class="f" d="M80,344.77c-1.84-5.66-2.87-11.46-4-20.29-2.46-20-1-37.69,4.6-54.13L90,351.68Z" transform="translate(-36.71 -23.81)"/><path class="g" d="M40.78,93.38a82.85,82.85,0,0,1,5.1-15.33L58.68,96.4Z" transform="translate(-36.71 -23.81)"/><path class="h" d="M45.88,78.05l.09-.2c6-12.35,21.86-26.8,39.12-35.72a150.78,150.78,0,0,1,16.84-7.4L58.68,96.4Z" transform="translate(-36.71 -23.81)"/><path class="i" d="M193.41,509.85c-11.71.67-38.28-2.25-46.19-3.16L175,503.38Z" transform="translate(-36.71 -23.81)"/><path class="j" d="M92.43,325.86c.36,1.76,2.78,6.56,6.28,12.67L90,351.68l-9.37-81.33a107.85,107.85,0,0,1,7-16l20.8,10.39C92.26,288.21,88.26,305.59,92.43,325.86Z" transform="translate(-36.71 -23.81)"/><path class="j" d="M121.63,292.8c1.34-6.21,3.2-10.08,9-17l7.34,3.66L119.68,307C119.65,303.3,120.32,298.88,121.63,292.8Z" transform="translate(-36.71 -23.81)"/><path class="k" d="M68.73,99.06a16.5,16.5,0,0,0-.85,5.12c0,4.19,6.4,5.66,8.68,2a13.77,13.77,0,0,1,4.59-3.83l77.36,20.46-17.58,15.28c-2.43-6.24-7.63-10.39-16.87-14.6-6.87-3.13-14.83-5.69-17.69-5.7-5.35,0-17.36,9.88-27.13,21.06L58.68,96.4Z" transform="translate(-36.71 -23.81)"/><path class="l" d="M153.27,110.65l5.24,12.16L81.15,102.35c7-4.19,20-8.45,29.06-9.06C128.28,92.06,141.65,97.44,153.27,110.65Z" transform="translate(-36.71 -23.81)"/><path class="l" d="M96.58,73.67c-15.26,7.65-25,16.64-27.85,25.39L58.68,96.4l43.25-61.67a171.72,171.72,0,0,1,16.41-5.15l14.77,34.26A91.47,91.47,0,0,0,96.58,73.67Z" transform="translate(-36.71 -23.81)"/><path class="m" d="M168.59,458.44c-8.64,6.89-16.65,14.19-16.65,16.06a6.47,6.47,0,0,0,2.4,4.38c2,1.54,10.61,5.14,18.28,7.86L175,503.38l-27.77,3.31-2.27-.27-7.72-7.27a51.65,51.65,0,0,1-14-21.61l40-57Z" transform="translate(-36.71 -23.81)"/><path class="n" d="M123.18,477.54A90.84,90.84,0,0,1,119,455.35c-.85-10.64-3.64-25.07-7.06-38.41l51.26,3.6Z" transform="translate(-36.71 -23.81)"/><path class="o" d="M134.71,271.2l3.27,8.29-7.34-3.66C131.83,274.43,133.17,272.9,134.71,271.2Z" transform="translate(-36.71 -23.81)"/><path class="o" d="M108.37,264.7l-20.8-10.39a119.89,119.89,0,0,1,6.65-11c7.18-10.56,13.33-19.72,18.59-27.77l11.28,28.66C117.92,251.6,112.71,258.37,108.37,264.7Z" transform="translate(-36.71 -23.81)"/><path class="p" d="M153.81,111.26a38.14,38.14,0,0,1,5,8.95l-.26,2.6-5.24-12.16C153.45,110.85,153.64,111.05,153.81,111.26Z" transform="translate(-36.71 -23.81)"/><path class="p" d="M133.11,63.84,118.34,29.58a176.48,176.48,0,0,1,50-5.67l-4.4,44.43A79.15,79.15,0,0,0,133.11,63.84Z" transform="translate(-36.71 -23.81)"/><path class="q" d="M165.83,179.39c-2.08,8.27-11,23.09-11,23.09-6.59,11.1-16.72,25.56-22.49,32.13-2.92,3.32-5.66,6.51-8.24,9.6l-11.28-28.66c12-18.29,19.34-30.75,23.75-40.42l30.1-.69A37.15,37.15,0,0,1,165.83,179.39Z" transform="translate(-36.71 -23.81)"/><path class="q" d="M137.54,268.13c3.8-4.09,7.52-8.25,11.16-12.44L138,279.49l-3.27-8.29C135.59,270.23,136.53,269.22,137.54,268.13Z" transform="translate(-36.71 -23.81)"/><path class="r" d="M161.88,400.41l1.32,20.13-51.26-3.6c-1.11-4.37-2.29-8.61-3.5-12.57l23.23-22.06A185.37,185.37,0,0,0,161.88,400.41Z" transform="translate(-36.71 -23.81)"/><path class="s" d="M107.48,352.88c7.54,11.66,16.2,23.47,21.66,27.56l2.53,1.87-23.23,22.06c-3.11-10.24-6.36-18.54-9-21.95a129.44,129.44,0,0,1-7.72-12.55L90,351.68Z" transform="translate(-36.71 -23.81)"/><path class="t" d="M90,351.68l8.75-13.15c2.49,4.33,5.53,9.33,8.77,14.35Z" transform="translate(-36.71 -23.81)"/><path class="t" d="M123.82,320c-2.77-4.52-4.08-8.13-4.14-13.05l18.3-27.5,18.52,67.86C141.45,340.58,131,331.73,123.82,320Z" transform="translate(-36.71 -23.81)"/><path class="u" d="M162.57,130.51c2.59,8.21,4.55,17.41,4.48,24.66a149.61,149.61,0,0,1-.39,19.27l-30.1.69c3.82-8.38,5.43-14.65,5.88-20.8.51-6.82.13-12-1.51-16.24l17.58-15.28Z" transform="translate(-36.71 -23.81)"/><path class="v" d="M414.85,513.54c-.09,1.63-2,2.24-6.12.94l2.8-1Z" transform="translate(-36.71 -23.81)"/><path class="w" d="M201,181.48,264.21,212l-5.36,14.64A116.7,116.7,0,0,1,234,246.47q-9.5,5.63-16.31,10.34l-24.15-62.08C196.3,190.16,198.78,185.73,201,181.48Z" transform="translate(-36.71 -23.81)"/><path class="w" d="M231.18,291.43l-6.51-16.74a79.72,79.72,0,0,1,16.69-.24l-6.26,17.1C233.75,291.49,232.44,291.45,231.18,291.43Z" transform="translate(-36.71 -23.81)"/><path class="x" d="M172.62,486.74a90.64,90.64,0,0,0,10.4,3.19,11,11,0,0,1,2.4.86L175,503.38Z" transform="translate(-36.71 -23.81)"/><path class="x" d="M220,449.05l-1.91,2.31a103.31,103.31,0,0,1-11.3-2.53c-7.39-2.19-15.29-4-17.55-4s-11.85,6.58-20.65,13.59l-5.39-37.9Z" transform="translate(-36.71 -23.81)"/><path class="y" d="M218.93,296.49a79.94,79.94,0,0,0,10.1,3.56l-63.38,51q-4.83-1.72-9.15-3.67L138,279.49l78.48,14.17C216.09,294.41,216.81,295.36,218.93,296.49Z" transform="translate(-36.71 -23.81)"/><path class="z" d="M216.46,293.66,138,279.49l10.72-23.8c17.86-20.58,33.52-42,44.86-61l24.15,62.08Q195.77,272,201.58,277.63c.89.88,7.24.28,14.12-1.33a84.83,84.83,0,0,1,9-1.61l6.51,16.74C223.15,291.29,217.26,292,216.46,293.66Z" transform="translate(-36.71 -23.81)"/><path class="aa" d="M178.6,24.63c12.09,1.28,23.26,4.09,32.66,8.49,19.89,9.31,45.51,32.53,59.74,54.16a75.23,75.23,0,0,1,4.36,8.19l-1,32.11Z" transform="translate(-36.71 -23.81)"/><path class="ab" d="M161.88,400.41a152.33,152.33,0,0,0,33.51,11.27L220,449.05l-56.8-28.51Z" transform="translate(-36.71 -23.81)"/><path class="ac" d="M266.09,355.26c-26.79,5.77-59.45,6.48-81.68,1.21-3.92-.92-7.63-1.91-11.16-3l104-21Z" transform="translate(-36.71 -23.81)"/><path class="ac" d="M203.79,413.22c10,1.55,18.17,2.69,18.27,2.53s6.83-.86,15.07-1.57L220,449.05l-24.61-37.37C198.16,412.26,201,412.78,203.79,413.22Z" transform="translate(-36.71 -23.81)"/><path class="ad" d="M209.92,124.93c-1.6-8.79-3.73-16.93-5.57-20.59a72.38,72.38,0,0,0-40.44-36l4.4-44.43q5.24.18,10.29.72l95.75,103Z" transform="translate(-36.71 -23.81)"/><path class="ad" d="M159.87,122.86l-1.36,0,.26-2.6C159.14,121.05,159.5,121.94,159.87,122.86Z" transform="translate(-36.71 -23.81)"/><path class="ae" d="M162.57,130.51l-4.06-7.7,1.36,0C160.81,125.24,161.72,127.82,162.57,130.51Z" transform="translate(-36.71 -23.81)"/><path class="ae" d="M212,153.05c1.07-5.7-.1-17.39-2.06-28.12l64.43,2.65-64.58,33.74A65.13,65.13,0,0,0,212,153.05Z" transform="translate(-36.71 -23.81)"/><path class="af" d="M238,302.6c1.3.34,2.58.71,3.87,1.09l35.45,28.79-104,21c-2.63-.79-5.17-1.61-7.6-2.48l63.38-51C231.83,300.9,234.91,301.79,238,302.6Z" transform="translate(-36.71 -23.81)"/><path class="ag" d="M185.42,490.79a33.61,33.61,0,0,1,8.74,6.24c4.79,4.8,5.77,7.09,4.85,11.28h0c-.19.88-2.31,1.36-5.6,1.55L175,503.38Z" transform="translate(-36.71 -23.81)"/><path class="ag" d="M220.23,451.71l-2.14-.35,1.91-2.31Z" transform="translate(-36.71 -23.81)"/><path class="ah" d="M274.35,127.58,264.21,212,201,181.48a141.76,141.76,0,0,0,8.78-20.16Z" transform="translate(-36.71 -23.81)"/><path class="ai" d="M235.1,291.55l6.26-17.1c10.12.87,21.49,3.56,35.76,8.39l-30.65,9.67C242.53,292,238.67,291.72,235.1,291.55Z" transform="translate(-36.71 -23.81)"/><path class="ai" d="M267.31,216.74a114.87,114.87,0,0,1-8.46,9.92L264.21,212Z" transform="translate(-36.71 -23.81)"/><path class="aj" d="M237.61,414.14c8.47-.72,29.24-4.82,46.17-9.09,17.62-4.46,27.28-7.38,37.34-11.82l25.58,35.44L220,449.05l17.13-34.87Z" transform="translate(-36.71 -23.81)"/><path class="aj" d="M288.92,348.6c-1.95.72-4.32,1.52-7.22,2.48a152.4,152.4,0,0,1-15.61,4.18l11.2-22.78Z" transform="translate(-36.71 -23.81)"/><path class="ak" d="M220,449.05l3.72,3.17c-1.19-.16-2.36-.33-3.49-.51Z" transform="translate(-36.71 -23.81)"/><path class="al" d="M346.7,428.67l-7.32,49.2a109.87,109.87,0,0,0-11.88-17.2c-8.27-9.46-5.86-9.07-40.72-6.65-21.2,1.47-45.12.68-63.06-1.8L220,449.05Z" transform="translate(-36.71 -23.81)"/><path class="am" d="M335.73,386c3.74-2,7.43-4,11-6l8.66,5.92-8.73,42.75-25.58-35.44C325.66,391.23,330.27,388.92,335.73,386Z" transform="translate(-36.71 -23.81)"/><path class="am" d="M295.86,345.18c-1.3,1.1-3.42,2.11-6.94,3.42l-11.63-16.12Z" transform="translate(-36.71 -23.81)"/><path class="an" d="M274.35,127.58,287.18,153c.44,8,.38,15.43-.51,20.81A95.42,95.42,0,0,1,272.73,209l-8.52,3Z" transform="translate(-36.71 -23.81)"/><path class="ao" d="M267.74,296.62a137.43,137.43,0,0,0-21.27-4.11l30.65-9.67c6.15,2.08,12.82,4.56,20.17,7.45l-6.72,14.17C282.31,301.36,273.1,298.18,267.74,296.62Z" transform="translate(-36.71 -23.81)"/><path class="ao" d="M241.84,303.69c15.28,4.5,29.89,11.37,40.36,18.41l-4.91,10.38Z" transform="translate(-36.71 -23.81)"/><path class="ap" d="M414.82,513a3,3,0,0,1,0,.51l-3.32-.06Z" transform="translate(-36.71 -23.81)"/><path class="aq" d="M275.36,95.47c1.79,3.79,3.65,8.12,5.1,12,1.17,3.14,3,12.32,4.5,23.23l-10.61-3.12Z" transform="translate(-36.71 -23.81)"/><path class="ar" d="M285,130.7c1,7.11,1.81,15,2.22,22.33l-12.83-25.45Z" transform="translate(-36.71 -23.81)"/><path class="as" d="M272.73,209q-2.53,4-5.42,7.76l-3.1-4.72Z" transform="translate(-36.71 -23.81)"/><path class="at" d="M297.53,307.17c-2.15-.87-4.52-1.78-7-2.71l6.72-14.17q5.56,2.2,11.66,4.72c14.79,6.13,31.66,12.29,37.47,13.7a74.91,74.91,0,0,0,10.1,1.67l-26.73,7.46A315.24,315.24,0,0,1,297.53,307.17Z" transform="translate(-36.71 -23.81)"/><path class="at" d="M282.2,322.1a72.39,72.39,0,0,1,8.55,6.63l-13.46,3.75Z" transform="translate(-36.71 -23.81)"/><path class="au" d="M290.75,328.73c4.88,4.47,7.58,8.74,7.17,12.18a5.8,5.8,0,0,1-2.06,4.27l-18.57-12.7Z" transform="translate(-36.71 -23.81)"/><path class="au" d="M363,324.86c-8.79-1-20.83-3.62-33.18-7l26.73-7.46a145.63,145.63,0,0,0,28.46-.33l-5.66,14.53A57.81,57.81,0,0,1,363,324.86Z" transform="translate(-36.71 -23.81)"/><path class="au" d="M355.43,385.92,346.77,380c4.93-2.75,9.69-5.5,14.14-8.16Z" transform="translate(-36.71 -23.81)"/><path class="av" d="M384.72,478.41c.07,6.56,1.18,8.35,4.76,12.62a47.12,47.12,0,0,0,12.18,9.79l.32.17,9.55,12.49-2.8,1-.8-.26a15.11,15.11,0,0,0-10.66.1C390.19,517,373,516.7,368,513.8c-5.89-3.4-22.6-24.23-28.27-35.23-.11-.23-.23-.46-.36-.7l7.32-49.2Z" transform="translate(-36.71 -23.81)"/><path class="aw" d="M360.91,371.84c16-9.59,28.12-18,29.8-21.14a9.55,9.55,0,0,1,2.46-3L396.58,380l-41.15,5.89Z" transform="translate(-36.71 -23.81)"/><path class="aw" d="M379.32,324.58,385,310.05c1.37-.13,2.76-.28,4.18-.45l1.34,12.8C386.12,323.39,382.5,324.1,379.32,324.58Z" transform="translate(-36.71 -23.81)"/><path class="ax" d="M392.79,435.94c-5.9,13.46-7.15,18.71-7.77,32.41-.2,4.33-.33,7.54-.3,10.06l-38-49.74Z" transform="translate(-36.71 -23.81)"/><path class="ax" d="M402,501a38.24,38.24,0,0,1,9.5,6.81l0,5.68Z" transform="translate(-36.71 -23.81)"/><polygon class="ay" points="359.86 356.22 309.99 404.86 318.71 362.11 359.86 356.22"/><path class="az" d="M396.58,380l8.22,33.88A142.81,142.81,0,0,0,393,435.43c-.08.17-.15.34-.22.51l-46.09-7.27Z" transform="translate(-36.71 -23.81)"/><path class="ba" d="M396.58,380l42.11-1.4a107.56,107.56,0,0,1,16.3-9.56c7.76-3.66,12.79-4.54,26-4.53,10.3,0,14.93-.34,20.94-2.54l-13.2-51.36a64.25,64.25,0,0,0-9.05-6.45c-3.91-2-10.94-3.06-19.88-3.23ZM480,329.58c4.17-1.89,5.56-1.75,8.15.85s2.72,3.63.56,6.21c-3.31,4-12.26,3-13.09-1.44C475.23,333.1,476.86,331,480,329.58Zm-41.28,5c0-4.64,4.61-8.47,7.14-5.93,1.47,1.47-3.33,10.81-5.55,10.8C439.44,339.45,438.72,337.26,438.73,334.58Z" transform="translate(-36.71 -23.81)"/><path class="bb" d="M393.17,347.72a2.73,2.73,0,0,1,1.49-.64c3.59,0,27.83-15.24,33.33-21,10.64-11.06,0-12.65-32.66-4.84-1.71.41-3.31.79-4.83,1.13l-1.34-12.8c7.21-.84,14.93-2.07,23.1-3.71,17.45-3.49,34.54-5.16,47.56-4.93L396.58,380Z" transform="translate(-36.71 -23.81)"/><path class="bc" d="M438.69,378.63a134.57,134.57,0,0,0-33.89,35.28L396.58,380Z" transform="translate(-36.71 -23.81)"/><path class="bd" d="M411.48,507.8c2,2,3.14,3.87,3.34,5.23l-3.29.45Z" transform="translate(-36.71 -23.81)"/><path class="be" d="M496.53,317.46c8.85,8.4,12.55,10.53,21.62,12.43,9.63,2,14.24,5.51,14,9.88l-7.22,10a79.15,79.15,0,0,1-14.11,8.35c-3.56,1.71-6.34,3-8.88,3.9l-13.2-51.36C491.35,312.76,494.09,315.14,496.53,317.46Z" transform="translate(-36.71 -23.81)"/><path class="bf" d="M524.94,349.75l7.22-10C532,342.75,529.58,346.14,524.94,349.75Z" transform="translate(-36.71 -23.81)"/></svg>